<?xml version="1.0" standalone="no"?>
<!DOCTYPE svg PUBLIC "-//W3C//DTD SVG 20010904//EN"
 "http://www.w3.org/TR/2001/REC-SVG-20010904/DTD/svg10.dtd">
<svg version="1.0" xmlns="http://www.w3.org/2000/svg"
 viewBox="0 0 512.000000 512.000000"  width="64" height="64">
 preserveAspectRatio="xMidYMid meet">

<g transform="translate(0.000000,512.000000) scale(0.100000,-0.100000)"
fill="#000000" stroke="none">
<path d="M1390 3663 c-14 -10 -32 -26 -41 -38 -9 -11 -26 -31 -38 -44 -21 -24
-25 -35 -22 -58 1 -7 -5 -13 -12 -13 -20 0 -27 -22 -27 -80 0 -59 33 -104 88
-120 20 -5 106 -10 190 -10 128 0 152 -2 152 -15 0 -10 10 -15 34 -15 21 0 36
6 40 15 4 13 36 15 196 15 162 0 190 -2 190 -15 0 -11 11 -15 40 -15 29 0 40
4 40 15 0 13 23 15 145 15 90 0 145 4 145 10 0 6 95 10 265 10 l265 0 0 33 c0
17 -9 51 -20 75 l-19 42 36 0 c35 0 36 0 18 20 -18 20 -32 20 -764 22 l-746 2
590 7 c325 3 633 7 685 8 l95 2 -47 21 c-27 11 -48 26 -48 33 0 26 -176 61
-357 71 -73 4 -133 11 -133 15 0 5 -206 9 -458 9 -416 0 -460 -2 -482 -17z"/>
<path d="M2610 3285 c0 -11 11 -15 40 -15 29 0 40 4 40 15 0 11 -11 15 -40 15
-29 0 -40 -4 -40 -15z"/>
<path d="M1583 3246 c-67 -22 -129 -62 -162 -108 -38 -52 -39 -60 -3 -56 17 2
49 25 87 64 44 44 72 64 105 73 34 9 176 11 575 9 529 -3 530 -3 576 -26 25
-12 61 -38 79 -57 29 -30 40 -35 79 -35 l46 1 -40 35 c-22 19 -74 51 -114 72
l-75 37 -555 2 c-440 2 -565 -1 -598 -11z"/>
<path d="M2500 3075 c0 -13 -47 -15 -366 -15 -241 0 -363 3 -359 10 4 6 -6 10
-23 10 -17 0 -32 -6 -35 -13 -4 -10 -38 -16 -124 -20 -243 -13 -337 -36 -435
-107 -68 -48 -120 -116 -193 -250 -31 -58 -69 -117 -83 -132 -26 -28 -27 -28
-161 -29 -181 -1 -404 -21 -424 -38 -27 -21 -37 -78 -37 -201 0 -138 26 -266
71 -358 48 -99 94 -120 302 -137 l77 -7 0 -32 c0 -107 80 -221 191 -270 53
-24 71 -28 138 -24 91 4 149 29 210 90 50 51 79 107 87 172 l7 49 96 -7 c53
-3 597 -6 1209 -6 l1112 0 0 -28 c0 -95 71 -202 172 -257 48 -27 62 -30 143
-30 78 0 97 4 140 27 93 49 161 142 172 238 7 60 7 60 232 60 91 0 176 3 188
6 47 13 64 113 47 262 l-7 52 -89 0 c-54 0 -102 6 -123 14 -64 27 -121 138
-95 186 10 18 21 20 113 20 l102 1 -28 24 c-26 23 -27 25 -7 25 48 0 5 18 -67
29 -85 12 -472 31 -649 31 -90 0 -113 3 -118 15 -6 18 -43 20 -48 3 -5 -13
-85 29 -108 56 -7 9 -20 16 -30 16 -9 0 -99 86 -200 191 -315 328 -379 359
-746 359 -170 0 -203 2 -208 15 -3 8 -15 15 -26 15 -11 0 -20 -7 -20 -15z
m-690 -74 c-14 -28 -13 -31 15 -31 18 0 28 7 35 25 l10 25 152 0 c84 0 203 -3
265 -7 l112 -6 -15 -22 c-15 -22 -14 -23 30 -26 34 -3 47 0 55 14 18 27 28 14
57 -78 26 -79 27 -85 11 -103 -23 -26 -22 -32 23 -167 22 -65 38 -121 35 -123
-5 -5 -761 15 -907 24 -54 3 -98 10 -98 14 0 4 34 81 76 171 42 90 91 197 110
237 18 39 36 72 39 72 3 0 1 -9 -5 -19z m-202 -108 c-28 -65 -59 -129 -69
-143 -26 -35 -89 -177 -82 -184 3 -3 1 -12 -5 -19 -12 -14 -12 -14 -325 -1
l-149 6 25 27 c13 14 43 62 66 106 75 140 141 214 241 266 50 26 203 56 292
58 l56 1 -50 -117z m1055 110 c-19 -7 -16 -31 6 -43 11 -5 55 -10 99 -10 78 0
80 1 86 26 7 26 9 27 64 21 74 -6 159 -37 241 -86 68 -41 138 -95 111 -86 -9
3 -21 -4 -29 -17 -12 -20 -11 -24 9 -40 23 -19 24 -19 44 7 l21 25 55 -49 55
-49 -23 -25 -23 -24 98 -93 98 -92 -305 6 c-168 4 -344 9 -393 13 l-87 6 -35
111 c-66 216 -115 382 -115 394 0 7 8 12 18 11 10 0 12 -3 5 -6z m-1457 -883
c111 -55 191 -166 210 -293 9 -56 -8 -37 -25 28 -35 143 -156 256 -311 292
l-55 13 59 -4 c39 -3 81 -16 122 -36z m3054 -21 c105 -56 178 -155 205 -276 4
-20 3 -33 -3 -33 -5 0 -13 15 -16 34 -27 145 -178 285 -326 303 -28 3 -52 9
-55 12 -2 4 27 4 66 0 48 -6 87 -17 129 -40z"/>
</g>
</svg>
