<?xml version="1.0" standalone="no"?>
<!DOCTYPE svg PUBLIC "-//W3C//DTD SVG 20010904//EN"
 "http://www.w3.org/TR/2001/REC-SVG-20010904/DTD/svg10.dtd">
<svg version="1.0" xmlns="http://www.w3.org/2000/svg"
 viewBox="0 0 512.000000 512.000000"  width="64" height="64">
 preserveAspectRatio="xMidYMid meet">

<g transform="translate(0.000000,512.000000) scale(0.100000,-0.100000)"
fill="#000000" stroke="none">
<path d="M3660 3962 c-45 -46 -42 -95 10 -158 53 -64 80 -138 80 -218 0 -58
-23 -161 -39 -179 -4 -4 -36 6 -72 21 -188 85 -524 133 -949 136 l-215 1 -57
-28 c-70 -35 -119 -88 -178 -198 l-46 -84 -69 2 c-135 5 -348 56 -540 129
l-95 37 0 138 c0 86 -5 148 -12 164 -25 55 -29 55 -518 55 -489 0 -493 0 -518
-55 -33 -71 4 -131 202 -324 70 -68 125 -125 124 -126 -2 -2 -84 -26 -183 -55
-356 -102 -305 -77 -439 -209 -123 -121 -152 -163 -141 -212 9 -38 59 -79 96
-79 46 0 65 14 174 120 l100 99 327 40 c179 23 337 41 351 41 18 0 137 -91
413 -312 213 -172 389 -318 391 -324 3 -9 -56 -44 -76 -44 -4 0 -30 27 -56 61
-94 120 -282 242 -440 285 -34 9 -116 19 -190 21 -109 4 -144 2 -218 -16 -164
-39 -302 -117 -418 -238 -116 -119 -184 -243 -220 -400 -18 -79 -21 -114 -17
-226 4 -115 9 -145 37 -227 94 -279 312 -485 597 -561 113 -31 307 -31 419 0
308 83 534 309 616 616 16 61 22 110 22 206 l1 125 105 28 c58 16 113 31 122
33 41 12 50 -266 14 -412 -23 -94 -20 -132 13 -164 23 -23 45 -30 152 -49 288
-50 621 -83 865 -85 l166 -2 28 31 c21 23 32 52 45 118 27 138 28 138 60 56
59 -150 193 -309 334 -397 245 -153 540 -173 799 -53 236 110 392 292 469 547
23 76 27 106 27 223 0 159 -19 248 -82 375 -103 207 -272 357 -487 431 -52 18
-91 35 -87 37 5 3 42 9 83 12 91 9 123 24 140 65 77 187 -319 814 -694 1098
-95 71 -167 105 -237 110 -54 4 -60 2 -89 -26z m461 -524 c138 -165 136 -161
115 -205 -9 -19 -18 -34 -20 -32 -2 2 -29 36 -61 74 -32 39 -88 102 -126 140
l-68 70 6 58 6 58 25 -23 c13 -13 69 -76 123 -140z m-175 -118 c-20 -96 -73
-207 -126 -264 -38 -41 -47 -46 -85 -46 -33 0 -52 7 -86 35 -80 63 -242 112
-469 140 -152 19 -578 39 -637 30 -52 -8 -76 -34 -135 -148 -23 -45 -62 -101
-85 -126 l-42 -44 -133 6 c-163 7 -327 40 -527 106 -182 60 -291 110 -319 146
-18 22 -22 41 -22 97 l0 68 28 -30 c50 -56 342 -166 567 -214 66 -13 177 -30
247 -36 182 -17 196 -8 298 181 28 52 60 102 71 112 18 15 44 17 183 17 473 0
864 -71 977 -176 32 -30 88 -41 129 -24 54 22 148 177 167 274 l8 41 3 -36 c2
-19 -4 -69 -12 -109z m-2661 -855 c87 -32 192 -103 249 -166 25 -28 46 -54 46
-58 0 -3 -89 -51 -197 -104 l-198 -99 -37 16 c-72 31 -171 14 -226 -37 -46
-43 -64 -94 -60 -168 3 -58 8 -74 34 -106 42 -52 87 -81 138 -88 86 -13 175
34 217 116 14 29 28 41 57 48 20 6 116 33 212 59 121 34 177 46 182 38 12 -18
9 -106 -7 -180 -50 -234 -223 -420 -460 -492 -81 -25 -256 -25 -340 0 -198 59
-370 221 -435 410 -103 299 29 630 309 775 42 21 96 45 121 52 118 32 285 26
395 -16z m3192 3 c154 -54 294 -178 363 -323 124 -256 77 -529 -125 -730 -203
-204 -473 -249 -734 -123 -159 76 -290 238 -336 413 -18 69 -20 221 -4 297 14
71 79 202 127 260 73 87 193 176 262 193 l25 6 38 -214 37 -215 -35 -52 c-30
-45 -35 -60 -35 -111 0 -76 16 -115 68 -161 66 -60 144 -73 222 -37 56 25 77
44 101 91 45 88 32 178 -35 243 -22 22 -49 45 -60 50 -14 8 -25 48 -52 200
-18 105 -36 203 -39 219 l-5 29 72 -5 c40 -3 105 -16 145 -30z"/>
</g>
</svg>
